<?xml version="1.0" encoding="UTF-8" standalone="no"?>
<svg id="pr_x5F_cc_x5F_app_x5F_RGB.svg" height="487.60001" viewBox="0 0 500 487.60001" width="500" xmlns="http://www.w3.org/2000/svg">
   <g id="g8" transform="matrix(2.0666667 0 0 2.0666667 2 2)">
      <path id="path2" d="m197.5 234h-155c-23.5 0-42.5-19-42.5-42.5v-149c0-23.5 19-42.5 42.5-42.5h155c23.5 0 42.5 19 42.5 42.5v149c0 23.5-19 42.5-42.5 42.5z" fill="#26c9ff"/>
      <path id="path4" d="m193.7 224h-147.4c-20 0-36.3-16.3-36.3-36.3v-141.4c0-20 16.3-36.3 36.3-36.3h147.3c20.1 0 36.3 16.3 36.3 36.3v141.3c.1 20.1-16.2 36.4-36.2 36.4z" fill="#061e26"/>
      <path id="path6" d="m59 58.6c0-.6.2-1.1 1-1.1 6.3-.3 15.3-.5 25-.5 27 0 38.8 14.8 38.8 33.8 0 24.8-18.2 35.4-40.2 35.4-3.7 0-5-.2-7.6-.2v38c0 .8-.3 1.1-1.1 1.1h-14.8c-.8 0-1.1-.3-1.1-1.1zm17 51.8c2.2.2 4 .2 7.9.2 11.4 0 22.3-4 22.3-19.5 0-12.4-7.8-18.7-20.9-18.7-3.9 0-7.6.2-9.3.3zm87.2-11.6c-7.7 0-10.3 3.9-10.3 7.1 0 3.5 1.8 6 12.1 11.3 15.3 7.4 20.1 14.5 20.1 25 0 15.6-11.9 24-28 24-8.5 0-16.1-1.8-20.3-4.2-.6-.3-.8-.8-.8-1.6v-14.4c0-1 .5-1.3 1.1-.8 6.1 4 13.6 5.8 20 5.8 7.7 0 10.9-3.2 10.9-7.6 0-3.5-2.2-6.6-12.1-11.8-13.9-6.6-19.6-13.4-19.6-24.6 0-12.6 9.8-23 26.9-23 8.4 0 14.6 1.3 17.8 2.7.8.5 1 1.3 1 1.9v13.4c0 .8-.5 1.3-1.4 1-4.4-2.6-11.1-4.2-17.4-4.2z" fill="#d9f5ff" fill-rule="evenodd"/>
   </g>
</svg>
